# xmcd CD database file
#
# Track frame offsets:
#	150
#	13302
#	23595
#	38450
#	51380
#	62507
#	70790
#	86665
#	97837
#	110520
#	120537
#	133315
#	146960
#	163347
#	176620
#	188025
#
# Disc length: 2665 seconds
#
# Revision: 4
# Processed by: cddbd v1.5.2PL0 Copyright (c) Steve Scherf et al.
# Submitted via: CDex 1.51
#
DISCID=de0a6710
DTITLE=Slim Whitman - Slim Whitman (Time Music)
DYEAR=1997
DGENRE=Country
TTITLE0=Red Sails In The Sunset
TTITLE1=Any Time
TTITLE2=Mocking Bird Hill
TTITLE3=Release Me
TTITLE4=The Wayward Wind
TTITLE5=Have You Ever Been Lonely
TTITLE6=Down In The Valley
TTITLE7=Singin' The Blues
TTITLE8=Half As Much
TTITLE9=Cara Mia
TTITLE10=Tennessee Waltz
TTITLE11=You Are My Sunshine
TTITLE12=The Three Bells
TTITLE13=Til I Waltz Again With You
TTITLE14=It Is No Secret
TTITLE15=Now Is The Hour
EXTD=YEAR: 1997
EXTT0=
EXTT1=
EXTT2=
EXTT3=
EXTT4=
EXTT5=
EXTT6=
EXTT7=
EXTT8=
EXTT9=
EXTT10=
EXTT11=
EXTT12=
EXTT13=
EXTT14=
EXTT15=
PLAYORDER=
